<?xml version="1.0" encoding="UTF-8" standalone="no"?>
<!DOCTYPE svg PUBLIC "-//W3C//DTD SVG 1.1//EN" "http://www.w3.org/Graphics/SVG/1.1/DTD/svg11.dtd">
<svg width="100%" height="100%" viewBox="0 0 500 500" version="1.1" xmlns="http://www.w3.org/2000/svg" xmlns:xlink="http://www.w3.org/1999/xlink" xml:space="preserve" xmlns:serif="http://www.serif.com/" style="fill-rule:evenodd;clip-rule:evenodd;stroke-linejoin:round;stroke-miterlimit:2;">
    <g transform="matrix(1,0,0,1,-3551.880629,-5235.902133)">
        <g id="cam" transform="matrix(1.293103,0,0,1.293103,4516.53915,5353.811637)">
            <rect x="-746.003" y="-91.183" width="386.667" height="386.667" style="fill:none;"/>
            <g transform="matrix(0.06668,0,0,0.06668,-682.465587,44.063683)">
                <path d="M-516.009,2169.311L-516.009,71.938C-516.009,-24.039 -477.882,-116.085 -410.016,-183.951C-342.15,-251.817 -250.104,-289.944 -154.127,-289.943L-57.989,-289.943L-57.989,-425.475C-57.989,-488.418 -6.963,-539.443 55.98,-539.443L831.131,-539.443C894.074,-539.443 945.1,-488.418 945.1,-425.475L945.1,-305.715C978.832,-325.601 1001.466,-362.306 1001.466,-404.298L1001.466,-558.612C1001.466,-685.821 1104.588,-788.943 1231.797,-788.943L2661.334,-788.943C2788.543,-788.943 2891.665,-685.821 2891.665,-558.612L2891.665,-404.297C2891.666,-341.141 2942.863,-289.943 3006.019,-289.943L4047.258,-289.943C4143.235,-289.944 4235.281,-251.817 4303.147,-183.951C4371.013,-116.085 4409.14,-24.039 4409.14,71.938L4409.14,2169.311C4409.14,2265.288 4371.013,2357.334 4303.147,2425.2C4235.281,2493.066 4143.235,2531.193 4047.258,2531.193L2825.074,2531.193C2564.35,2692.97 2261.586,2780.693 1949.779,2780.693L1943.352,2780.693C1621.931,2780.693 1321.846,2689.344 1067.641,2531.193L-154.127,2531.193C-250.104,2531.193 -342.15,2493.066 -410.016,2425.2C-477.882,2357.334 -516.009,2265.288 -516.009,2169.311ZM904.181,-173.966L-154.127,-173.966C-219.345,-173.966 -281.891,-148.058 -328.007,-101.943C-374.123,-55.827 -400.031,6.72 -400.031,71.938L-400.031,1417.215L309.706,1417.215C292.349,1320.979 283.287,1221.86 283.287,1120.625C283.287,913.446 322.015,710.26 395.462,520.746C352.276,543.874 302.924,556.989 250.51,556.989L249.49,556.989C79.674,556.989 -57.989,419.325 -57.989,249.509L-57.989,249.491C-57.989,79.675 79.674,-57.989 249.49,-57.989L250.51,-57.989C406.881,-57.989 535.989,58.74 555.452,209.814C617.178,115.753 688.754,27.534 769.509,-53.222C812.377,-96.09 857.349,-136.372 904.181,-173.966ZM829.122,-289.943L829.122,-423.466L57.989,-423.466L57.989,-289.943L829.122,-289.943ZM2797.082,-307.226C2783.353,-336.725 2775.688,-369.616 2775.688,-404.297L2775.688,-558.613C2775.688,-621.768 2724.49,-672.966 2661.334,-672.966L1231.796,-672.966C1168.641,-672.966 1117.443,-621.768 1117.443,-558.612L1117.443,-404.297C1117.443,-369.457 1109.708,-336.423 1095.86,-306.82C1350.196,-457.813 1642.566,-539.443 1943.352,-539.443L1949.779,-539.443C2259.305,-539.443 2549.046,-454.731 2797.082,-307.226ZM4293.162,1417.215L4293.162,71.937C4293.162,6.72 4267.254,-55.827 4221.139,-101.943C4175.023,-148.058 4112.476,-173.966 4047.258,-173.966L2989.034,-173.966C3058.772,-117.911 3123.885,-56.337 3183.711,10.094C3201.365,-29.998 3241.446,-57.989 3288.065,-57.989L4063.216,-57.989C4126.16,-57.989 4177.185,-6.963 4177.185,55.98L4177.185,443.02C4177.185,505.963 4126.16,556.989 4063.216,556.989L3511.711,556.989C3575.224,732.964 3609.844,922.751 3609.844,1120.625C3609.844,1220.786 3600.792,1320.014 3583.142,1417.215L4293.162,1417.215ZM2988.95,2415.215L4047.258,2415.215C4112.476,2415.215 4175.023,2389.308 4221.139,2343.192C4267.254,2297.076 4293.162,2234.529 4293.162,2169.311L4293.162,1533.193L3557.765,1533.193C3484.465,1818.849 3335.697,2082.396 3123.622,2294.471C3080.754,2337.339 3035.782,2377.621 2988.95,2415.215ZM904.097,2415.215C628.556,2193.735 425.213,1886.097 334.958,1533.193L-400.031,1533.193L-400.031,2169.312C-400.031,2234.529 -374.123,2297.076 -328.007,2343.192C-281.891,2389.308 -219.345,2415.215 -154.127,2415.215L904.097,2415.215ZM3290.074,140.929C3358.263,234.058 3416.979,334.558 3464.806,441.011L4061.208,441.011L4061.208,57.989L3290.074,57.989L3290.074,140.929ZM3493.867,1120.624C3493.866,267.848 2802.555,-423.466 1949.779,-423.466L1943.352,-423.466C1533.835,-423.466 1141.09,-260.786 851.517,28.787C561.945,318.359 399.264,711.107 399.264,1120.625C399.264,1973.401 1090.576,2664.715 1943.352,2664.715L1949.779,2664.715C2359.296,2664.715 2752.041,2502.035 3041.614,2212.462C3331.186,1922.89 3493.867,1530.142 3493.867,1120.624ZM3276.563,1120.665C3276.563,1472.685 3136.724,1810.292 2887.809,2059.208C2638.893,2308.123 2301.291,2447.962 1949.272,2447.962L1943.894,2447.962C1591.865,2447.962 1254.255,2308.119 1005.333,2059.197C756.411,1810.275 616.568,1472.665 616.568,1120.636L616.568,1120.613C616.568,768.584 756.411,430.974 1005.333,182.052C1254.255,-66.87 1591.865,-206.713 1943.894,-206.713L1949.191,-206.713C2301.232,-206.713 2638.854,-66.865 2887.785,182.065C3136.715,430.996 3276.563,768.624 3276.563,1120.665ZM1775.553,118.742C1563.349,300.592 1634.537,732.34 1934.423,1082.282C2234.31,1432.224 2650.062,1568.693 2862.266,1386.843C3074.47,1204.993 3003.282,773.245 2703.396,423.303C2403.509,73.361 1987.757,-63.108 1775.553,118.742ZM442.011,249.491C442.011,143.727 356.273,57.989 250.51,57.989L249.49,57.989C143.727,57.989 57.989,143.727 57.989,249.491L57.989,249.509C57.989,355.273 143.727,441.011 249.49,441.011L250.51,441.011C356.273,441.011 442.011,355.273 442.011,249.509L442.011,249.491Z"/>
            </g>
        </g>
    </g>
</svg>
