<?xml version="1.0" encoding="UTF-8" standalone="no"?>
<!DOCTYPE svg PUBLIC "-//W3C//DTD SVG 1.1//EN" "http://www.w3.org/Graphics/SVG/1.1/DTD/svg11.dtd">
<svg width="100%" height="100%" viewBox="0 0 800 148" version="1.1" xmlns="http://www.w3.org/2000/svg" xmlns:xlink="http://www.w3.org/1999/xlink" xml:space="preserve" xmlns:serif="http://www.serif.com/" style="fill-rule:evenodd;clip-rule:evenodd;stroke-linejoin:round;stroke-miterlimit:2;">
    <g id="ArtBoard1" transform="matrix(1,0,0,0.246667,0,0)">
        <rect x="0" y="0" width="800" height="600" style="fill:none;"/>
        <g transform="matrix(1.08718,0,0,4.43866,3721.92,-1810.82)">
            <g transform="matrix(0.990524,0,0,0.983569,-3602.64,39.223)">
                <path d="M829.554,479.175C829.554,477.618 830.669,476.284 832.202,476.008C844.362,473.778 854.85,469.08 862.164,462.749C868.388,457.36 872.246,450.808 872.246,443.62C872.246,436.433 868.388,429.88 862.164,424.492C851.74,415.468 834.867,409.761 815.903,409.761C796.94,409.761 780.067,415.468 769.643,424.492C763.418,429.88 759.56,436.433 759.56,443.62C759.56,444.647 759.639,445.661 759.795,446.659C759.938,447.581 759.67,448.519 759.063,449.228C758.456,449.936 757.57,450.343 756.637,450.343C753.577,450.365 749.933,450.365 749.933,450.365C749.401,448.164 749.144,445.909 749.144,443.62C749.144,433.558 754.111,424.16 762.826,416.616C774.81,406.242 794.101,399.345 815.903,399.345C837.706,399.345 856.996,406.242 868.981,416.616C877.696,424.16 882.663,433.558 882.663,443.62C882.663,453.683 877.696,463.081 868.981,470.625C859.571,478.771 845.656,484.772 829.554,486.956L829.554,479.175Z" style="fill:rgb(253,21,60);"/>
            </g>
            <g transform="matrix(0.990524,0,0,0.983569,-3602.64,39.223)">
                <path d="M262.219,450.753C262.062,449.104 260.677,447.844 259.02,447.843C241.503,447.831 222.006,447.817 222.006,447.817L222.006,447.813L222.001,447.813L222.006,415.675C222.006,406.656 229.317,399.345 238.336,399.345L282.886,399.345C299.367,399.345 312.207,410.581 312.207,423.598C312.207,436.614 299.367,447.85 282.886,447.85C281.11,447.85 278.718,447.85 275.905,447.849C274.98,447.848 274.1,448.246 273.489,448.939C272.878,449.633 272.595,450.557 272.712,451.474C273.383,456.761 275.161,463.106 279.896,468.22C284.946,473.674 293.348,477.479 306.999,477.479C306.999,477.479 425.005,477.479 446.13,477.479C447.907,477.479 449.348,478.92 449.348,480.697C449.348,481.962 449.348,483.413 449.348,484.678C449.348,486.455 447.907,487.896 446.13,487.896C425.005,487.896 306.999,487.896 306.999,487.896C289.383,487.896 278.769,482.336 272.252,475.297C265.195,467.675 262.932,458.03 262.219,450.753ZM232.422,434.189C232.422,435.965 233.861,437.405 235.637,437.406C248.693,437.416 273.31,437.434 282.886,437.434C293.033,437.434 301.791,431.611 301.791,423.598C301.791,415.584 293.033,409.761 282.886,409.761L238.336,409.761C235.07,409.761 232.422,412.409 232.422,415.675C232.422,415.675 232.422,428.141 232.422,434.189Z" style="fill:rgb(253,21,60);"/>
            </g>
            <g transform="matrix(0.990524,0,0,0.983569,-3602.64,39.223)">
                <path d="M393.543,445.611C393.543,446.464 393.204,447.283 392.6,447.886C391.997,448.49 391.179,448.829 390.325,448.829C377.422,448.829 330.118,448.829 330.118,448.829L330.118,415.675C330.118,406.656 337.43,399.345 346.449,399.345C346.449,399.345 402.891,399.345 417.103,399.345C417.956,399.345 418.774,399.684 419.378,400.287C419.981,400.89 420.32,401.709 420.32,402.562C420.32,403.828 420.32,405.278 420.32,406.544C420.32,407.397 419.981,408.216 419.378,408.819C418.774,409.422 417.956,409.761 417.103,409.761C402.891,409.761 346.449,409.761 346.449,409.761C343.183,409.761 340.535,412.409 340.535,415.675C340.535,415.675 340.535,428.924 340.535,435.194C340.535,436.048 340.874,436.866 341.477,437.47C342.081,438.073 342.899,438.412 343.752,438.412C353.213,438.412 380.865,438.412 390.325,438.412C392.102,438.412 393.543,439.852 393.543,441.629C393.543,442.895 393.543,444.345 393.543,445.611Z" style="fill:rgb(253,21,60);"/>
            </g>
            <g transform="matrix(0.990524,0,0,0.983569,-3602.64,39.223)">
                <path d="M489.24,445.611C489.24,446.464 488.901,447.283 488.298,447.886C487.695,448.49 486.876,448.829 486.023,448.829C474.926,448.829 438.931,448.829 438.931,448.829L438.931,415.675C438.931,406.656 446.243,399.345 455.262,399.345C455.262,399.345 511.704,399.345 525.916,399.345C526.769,399.345 527.587,399.684 528.191,400.287C528.794,400.89 529.133,401.709 529.133,402.562C529.133,403.828 529.133,405.278 529.133,406.544C529.133,407.397 528.794,408.216 528.191,408.819C527.587,409.422 526.769,409.761 525.916,409.761C511.704,409.761 455.262,409.761 455.262,409.761C451.996,409.761 449.348,412.409 449.348,415.675C449.348,415.675 449.348,428.924 449.348,435.194C449.348,436.971 450.788,438.412 452.565,438.412C460.046,438.412 478.542,438.412 486.023,438.412C487.8,438.412 489.24,439.852 489.24,441.629C489.24,442.895 489.24,444.345 489.24,445.611Z" style="fill:rgb(253,21,60);"/>
            </g>
            <g transform="matrix(2.11591e-17,-0.412028,0.860837,6.0845e-17,-4050.18,977.813)">
                <path d="M1160.11,1303.63C1158.35,1304.76 1158.05,1306.26 1159.35,1307.52C1160.64,1308.78 1163.31,1309.57 1166.23,1309.57C1202.2,1309.57 1290.45,1309.57 1317,1309.57C1319.04,1309.57 1320.99,1309.96 1322.43,1310.66C1323.88,1311.35 1324.68,1312.3 1324.68,1313.28C1324.68,1314.73 1324.68,1316.4 1324.68,1317.86C1324.68,1318.84 1323.88,1319.78 1322.43,1320.48C1320.99,1321.17 1319.04,1321.56 1317,1321.56C1280.43,1321.56 1125.73,1321.56 1125.73,1321.56C1121.01,1321.56 1116.7,1320.27 1114.6,1318.23C1112.5,1316.19 1112.97,1313.76 1115.83,1311.95C1115.83,1311.95 1242.1,1231.67 1277.88,1208.93C1279.64,1207.81 1279.93,1206.31 1278.64,1205.05C1277.34,1203.79 1274.67,1202.99 1271.76,1202.99C1254.54,1202.99 1227.41,1202.99 1214.24,1202.99C1210,1202.99 1206.56,1201.34 1206.56,1199.29C1206.56,1197.83 1206.56,1196.17 1206.56,1194.71C1206.56,1193.73 1207.37,1192.79 1208.81,1192.09C1210.25,1191.4 1212.2,1191.01 1214.24,1191.01C1238.56,1191.01 1312.25,1191.01 1312.25,1191.01C1316.97,1191.01 1321.29,1192.3 1323.39,1194.33C1325.49,1196.37 1325.01,1198.81 1322.16,1200.62C1322.16,1200.62 1195.88,1280.89 1160.11,1303.63Z" style="fill:rgb(253,21,60);"/>
            </g>
            <g transform="matrix(0.990524,0,0,0.983569,-3602.64,39.223)">
                <path d="M561.844,402.562C561.844,401.709 561.505,400.89 560.902,400.287C560.298,399.684 559.48,399.345 558.626,399.345C557.361,399.345 555.91,399.345 554.645,399.345C553.791,399.345 552.973,399.684 552.37,400.287C551.766,400.89 551.427,401.709 551.427,402.562C551.427,416.407 551.427,470.833 551.427,484.678C551.427,485.532 551.766,486.35 552.37,486.953C552.973,487.557 553.791,487.896 554.645,487.896C555.91,487.896 557.361,487.896 558.626,487.896C559.48,487.896 560.298,487.557 560.902,486.953C561.505,486.35 561.844,485.532 561.844,484.678C561.844,470.833 561.844,416.407 561.844,402.562Z" style="fill:rgb(253,21,60);"/>
            </g>
            <g transform="matrix(0.990524,0,0,0.983569,-3437.87,39.223)">
                <path d="M561.844,402.562C561.844,401.709 561.505,400.89 560.902,400.287C560.298,399.684 559.48,399.345 558.626,399.345C557.361,399.345 555.91,399.345 554.645,399.345C553.791,399.345 552.973,399.684 552.37,400.287C551.766,400.89 551.427,401.709 551.427,402.562C551.427,416.407 551.427,470.833 551.427,484.678C551.427,485.532 551.766,486.35 552.37,486.953C552.973,487.557 553.791,487.896 554.645,487.896C555.91,487.896 557.361,487.896 558.626,487.896C559.48,487.896 560.298,487.557 560.902,486.953C561.505,486.35 561.844,485.532 561.844,484.678C561.844,470.833 561.844,416.407 561.844,402.562Z" style="fill:rgb(253,21,60);"/>
            </g>
        </g>
    </g>
</svg>
